<svg xmlns="http://www.w3.org/2000/svg" xmlns:xlink="http://www.w3.org/1999/xlink" baseProfile="tiny-ps" version="1.2" viewBox="0 0 241 241" xml:space="preserve"><title>Mempool Holdings S.A. de C.V.</title><g><g><path fill="#2E3349" d="M241.37,211.23c0,16.56-13.43,29.99-29.99,29.99H30.36c-16.56,0-29.99-13.43-29.99-29.99V30.21 c0-16.56,13.43-29.99,29.99-29.99h181.02c16.56,0,29.99,13.43,29.99,29.99V211.23z"/><linearGradient id="SVGID_1_" x1="120.869" x2="120.869" y1="68.656" y2="301.149" gradientUnits="userSpaceOnUse"><stop offset="0" stop-color="#AE61FF"/><stop offset="1" stop-color="#13EFD8"/></linearGradient><path fill="url(#SVGID_1_)" d="M0.32,120.99v90.24c0,16.56,13.49,29.99,30.14,29.99h180.82c16.64,0,30.13-13.43,30.13-29.99 v-90.24H0.32z"/></g><g><path fill="#FFF" fill-opacity=".3" d="M212.72,209c0,3.7-2.53,6.7-5.65,6.7h-31.24c-3.12,0-5.65-3-5.65-6.7V32.44c0-3.7,2.53-6.7,5.65-6.7h31.24 c3.12,0,5.65,3,5.65,6.7V209z"/></g></g></svg>